<?xml version="1.0" encoding="UTF-8" standalone="no"?>
<svg width="750px" height="455px" viewBox="0 0 750 455" version="1.1" xmlns="http://www.w3.org/2000/svg" xmlns:xlink="http://www.w3.org/1999/xlink">
    <!-- Generator: Sketch 41.1 (35376) - http://www.bohemiancoding.com/sketch -->
    <title>1productImage Copy</title>
    <desc>Created with Sketch.</desc>
    <defs>
        <ellipse id="path-1" cx="22.482254" cy="23.0387163" rx="22.482254" ry="23.0387163"></ellipse>
        <mask id="mask-2" maskContentUnits="userSpaceOnUse" maskUnits="objectBoundingBox" x="0" y="0" width="44.964508" height="46.0774325" fill="white">
            <use xlink:href="#path-1"></use>
        </mask>
        <polygon id="path-3" points="10.8791972 31.7555913 8.68664218 37.084274 2.73542131 37.241 7.43375357 41.4726009 5.86764282 47.1147355 10.8791972 44.1369423 15.7341406 47.1147355 14.481252 41.6293269 19.1795842 37.3977259 13.0717523 37.241"></polygon>
        <mask id="mask-4" maskContentUnits="userSpaceOnUse" maskUnits="objectBoundingBox" x="-2.04778157" y="-2.04778157" width="20.5397261" height="19.4547073">
            <rect x="0.687639736" y="29.7078098" width="20.5397261" height="19.4547073" fill="white"></rect>
            <use xlink:href="#path-3" fill="black"></use>
        </mask>
        <polygon id="path-5" points="65.1083923 30.7316484 62.9158373 36.0603311 56.9646164 36.217057 61.6629487 40.448658 60.0968379 46.0907926 65.1083923 43.1129993 69.9633357 46.0907926 68.7104471 40.6053839 73.4087793 36.373783 67.3009474 36.217057"></polygon>
        <mask id="mask-6" maskContentUnits="userSpaceOnUse" maskUnits="objectBoundingBox" x="-2.04778157" y="-2.04778157" width="20.5397261" height="19.4547073">
            <rect x="54.9168348" y="28.6838668" width="20.5397261" height="19.4547073" fill="white"></rect>
            <use xlink:href="#path-5" fill="black"></use>
        </mask>
        <polygon id="path-7" points="37.2442019 19.4549159 34.3792633 26.417728 26.6030014 26.6225166 32.7421555 32.1518085 30.6957708 39.5241977 37.2442019 35.6332145 43.5879945 39.5241977 41.9508868 32.356597 48.0900409 26.8273051 40.1091405 26.6225166"></polygon>
        <mask id="mask-8" maskContentUnits="userSpaceOnUse" maskUnits="objectBoundingBox" x="-2.04778157" y="-2.04778157" width="25.5826027" height="24.1648449">
            <rect x="24.5552198" y="17.4071344" width="25.5826027" height="24.1648449" fill="white"></rect>
            <use xlink:href="#path-7" fill="black"></use>
        </mask>
        <path d="M24.0446452,10.2394294 L23.028584,10.2394294 C22.730277,10.2394294 22.5102319,10.4686469 22.5102319,10.7514009 C22.5102319,11.0258856 22.7423061,11.2633724 23.028584,11.2633724 L24.0446452,11.2633724 L24.0446452,12.2794336 C24.0446452,12.5777406 24.2738626,12.7977856 24.5566166,12.7977856 C24.8311013,12.7977856 25.0685881,12.5657115 25.0685881,12.2794336 L25.0685881,11.2633724 L26.0846493,11.2633724 C26.3829563,11.2633724 26.6030014,11.034155 26.6030014,10.7514009 C26.6030014,10.4769162 26.3709272,10.2394294 26.0846493,10.2394294 L25.0685881,10.2394294 L25.0685881,9.22336827 C25.0685881,8.92506126 24.8393707,8.7050162 24.5566166,8.7050162 C24.2821319,8.7050162 24.0446452,8.93709033 24.0446452,9.22336827 L24.0446452,10.2394294 Z" id="path-9"></path>
        <mask id="mask-10" maskContentUnits="userSpaceOnUse" maskUnits="objectBoundingBox" x="0" y="0" width="4.09276944" height="4.09577178" fill="white">
            <use xlink:href="#path-9"></use>
        </mask>
        <ellipse id="path-11" cx="23.0218281" cy="23.0387163" rx="23.0218281" ry="23.0387163"></ellipse>
        <mask id="mask-12" maskContentUnits="userSpaceOnUse" maskUnits="objectBoundingBox" x="0" y="0" width="46.0436562" height="46.0774325" fill="white">
            <use xlink:href="#path-11"></use>
        </mask>
        <rect id="path-13" x="10.8003638" y="36.2064311" width="16.9720003" height="4.62209759"></rect>
        <mask id="mask-14" maskContentUnits="userSpaceOnUse" maskUnits="objectBoundingBox" x="0" y="0" width="16.9720003" height="4.62209759" fill="white">
            <use xlink:href="#path-13"></use>
        </mask>
        <rect id="path-15" x="16.9720003" y="27.7325855" width="4.62872734" height="10.0145448"></rect>
        <mask id="mask-16" maskContentUnits="userSpaceOnUse" maskUnits="objectBoundingBox" x="0" y="0" width="4.62872734" height="10.0145448" fill="white">
            <use xlink:href="#path-15"></use>
        </mask>
        <polygon id="path-17" points="0 7.70349598 5.01445462 7.70349598 6.94309102 20.0290896 2.70009095 20.0290896"></polygon>
        <mask id="mask-18" maskContentUnits="userSpaceOnUse" maskUnits="objectBoundingBox" x="0" y="0" width="6.94309102" height="12.3255936" fill="white">
            <use xlink:href="#path-17"></use>
        </mask>
        <polygon id="path-19" points="31.6296368 7.70349598 36.6440915 7.70349598 38.5727279 20.0290896 34.3297278 20.0290896"></polygon>
        <mask id="mask-20" maskContentUnits="userSpaceOnUse" maskUnits="objectBoundingBox" x="0" y="0" width="6.94309102" height="12.3255936" fill="white">
            <use xlink:href="#path-19"></use>
        </mask>
        <path d="M46.6735532,15.406992 L45.8942008,15.406992 C45.6817259,15.406992 45.5158189,15.5794406 45.5158189,15.7921668 C45.5158189,15.9986716 45.6852262,16.1773416 45.8942008,16.1773416 L46.6735532,16.1773416 L46.6735532,16.956694 C46.6735532,17.1691689 46.8460018,17.3350759 47.058728,17.3350759 C47.2652328,17.3350759 47.4439028,17.1656685 47.4439028,16.956694 L47.4439028,16.1773416 L48.2232552,16.1773416 C48.4357301,16.1773416 48.6016371,16.0048929 48.6016371,15.7921668 C48.6016371,15.5856619 48.4322298,15.406992 48.2232552,15.406992 L47.4439028,15.406992 L47.4439028,14.6276395 C47.4439028,14.4151646 47.2714542,14.2492577 47.058728,14.2492577 C46.8522231,14.2492577 46.6735532,14.418665 46.6735532,14.6276395 L46.6735532,15.406992 Z" id="path-21"></path>
        <mask id="mask-22" maskContentUnits="userSpaceOnUse" maskUnits="objectBoundingBox" x="0" y="0" width="3.08581823" height="3.08139839" fill="white">
            <use xlink:href="#path-21"></use>
        </mask>
        <path d="M7.32937077,1.5406992 L6.55001834,1.5406992 C6.33754345,1.5406992 6.17163646,1.71314783 6.17163646,1.925874 C6.17163646,2.13237884 6.3410438,2.3110488 6.55001834,2.3110488 L7.32937077,2.3110488 L7.32937077,3.09040122 C7.32937077,3.30287612 7.50181941,3.46878311 7.71454557,3.46878311 C7.92105042,3.46878311 8.09972037,3.29937577 8.09972037,3.09040122 L8.09972037,2.3110488 L8.8790728,2.3110488 C9.0915477,2.3110488 9.25745469,2.13860016 9.25745469,1.925874 C9.25745469,1.71936915 9.08804735,1.5406992 8.8790728,1.5406992 L8.09972037,1.5406992 L8.09972037,0.761346768 C8.09972037,0.548871872 7.92727174,0.382964881 7.71454557,0.382964881 C7.50804072,0.382964881 7.32937077,0.552372222 7.32937077,0.761346768 L7.32937077,1.5406992 Z" id="path-23"></path>
        <mask id="mask-24" maskContentUnits="userSpaceOnUse" maskUnits="objectBoundingBox" x="0" y="0" width="3.08581823" height="3.08139839" fill="white">
            <use xlink:href="#path-23"></use>
        </mask>
        <rect id="path-25" x="10.8003638" y="36.2064311" width="16.9720003" height="4.62209759"></rect>
        <mask id="mask-26" maskContentUnits="userSpaceOnUse" maskUnits="objectBoundingBox" x="0" y="0" width="16.9720003" height="4.62209759" fill="white">
            <use xlink:href="#path-25"></use>
        </mask>
        <rect id="path-27" x="16.9720003" y="27.7325855" width="4.62872734" height="10.0145448"></rect>
        <mask id="mask-28" maskContentUnits="userSpaceOnUse" maskUnits="objectBoundingBox" x="0" y="0" width="4.62872734" height="10.0145448" fill="white">
            <use xlink:href="#path-27"></use>
        </mask>
        <polygon id="path-29" points="0 7.70349598 5.01445462 7.70349598 6.94309102 20.0290896 2.70009095 20.0290896"></polygon>
        <mask id="mask-30" maskContentUnits="userSpaceOnUse" maskUnits="objectBoundingBox" x="0" y="0" width="6.94309102" height="12.3255936" fill="white">
            <use xlink:href="#path-29"></use>
        </mask>
        <polygon id="path-31" points="31.6296368 7.70349598 36.6440915 7.70349598 38.5727279 20.0290896 34.3297278 20.0290896"></polygon>
        <mask id="mask-32" maskContentUnits="userSpaceOnUse" maskUnits="objectBoundingBox" x="0" y="0" width="6.94309102" height="12.3255936" fill="white">
            <use xlink:href="#path-31"></use>
        </mask>
        <path d="M46.6735532,15.406992 L45.8942008,15.406992 C45.6817259,15.406992 45.5158189,15.5794406 45.5158189,15.7921668 C45.5158189,15.9986716 45.6852262,16.1773416 45.8942008,16.1773416 L46.6735532,16.1773416 L46.6735532,16.956694 C46.6735532,17.1691689 46.8460018,17.3350759 47.058728,17.3350759 C47.2652328,17.3350759 47.4439028,17.1656685 47.4439028,16.956694 L47.4439028,16.1773416 L48.2232552,16.1773416 C48.4357301,16.1773416 48.6016371,16.0048929 48.6016371,15.7921668 C48.6016371,15.5856619 48.4322298,15.406992 48.2232552,15.406992 L47.4439028,15.406992 L47.4439028,14.6276395 C47.4439028,14.4151646 47.2714542,14.2492577 47.058728,14.2492577 C46.8522231,14.2492577 46.6735532,14.418665 46.6735532,14.6276395 L46.6735532,15.406992 Z" id="path-33"></path>
        <mask id="mask-34" maskContentUnits="userSpaceOnUse" maskUnits="objectBoundingBox" x="0" y="0" width="3.08581823" height="3.08139839" fill="white">
            <use xlink:href="#path-33"></use>
        </mask>
        <path d="M7.32937077,1.5406992 L6.55001834,1.5406992 C6.33754345,1.5406992 6.17163646,1.71314783 6.17163646,1.925874 C6.17163646,2.13237884 6.3410438,2.3110488 6.55001834,2.3110488 L7.32937077,2.3110488 L7.32937077,3.09040122 C7.32937077,3.30287612 7.50181941,3.46878311 7.71454557,3.46878311 C7.92105042,3.46878311 8.09972037,3.29937577 8.09972037,3.09040122 L8.09972037,2.3110488 L8.8790728,2.3110488 C9.0915477,2.3110488 9.25745469,2.13860016 9.25745469,1.925874 C9.25745469,1.71936915 9.08804735,1.5406992 8.8790728,1.5406992 L8.09972037,1.5406992 L8.09972037,0.761346768 C8.09972037,0.548871872 7.92727174,0.382964881 7.71454557,0.382964881 C7.50804072,0.382964881 7.32937077,0.552372222 7.32937077,0.761346768 L7.32937077,1.5406992 Z" id="path-35"></path>
        <mask id="mask-36" maskContentUnits="userSpaceOnUse" maskUnits="objectBoundingBox" x="0" y="0" width="3.08581823" height="3.08139839" fill="white">
            <use xlink:href="#path-35"></use>
        </mask>
    </defs>
    <g id="Page-1" stroke="none" stroke-width="1" fill="none" fill-rule="evenodd" opacity="0.699999988">
        <g id="iPhone-7" transform="translate(0.000000, -879.000000)">
            <g id="Group-2" transform="translate(0.000000, 765.000000)">
                <g id="1productImage-Copy" transform="translate(0.000000, 114.000000)">
                    <rect id="bg-copy" fill="#50E3C2" x="0" y="0" width="750" height="1005"></rect>
                    <g id="Icon1" transform="translate(95.668486, 99.322466)" stroke="#FFFFFF">
                        <use id="Oval-3" mask="url(#mask-2)" stroke-width="6.9112628" xlink:href="#path-1"></use>
                        <polyline id="Path-11" stroke-width="3.4556314" stroke-linecap="round" stroke-linejoin="round" points="22.161079 13.4941052 22.161079 26.3299614 32.1175057 26.3299614"></polyline>
                    </g>
                    <g id="Image---normal-score-Copy-2" transform="translate(670.204651, 451.413550) rotate(20.000000) translate(-670.204651, -451.413550) translate(632.090736, 410.967804)">
                        <path d="M18.4174625,49.6612328 C29.1609823,58.3647478 37.3465211,80.8914926 37.3465211,80.8914926" id="Path-15" stroke="#FFFFFF" stroke-width="2.04778157" stroke-linecap="round"></path>
                        <g id="Path-16" transform="translate(10.957503, 39.435163) rotate(-30.000000) translate(-10.957503, -39.435163) ">
                            <use fill="#FFFFFF" fill-rule="evenodd" xlink:href="#path-3"></use>
                            <use stroke="#FFFFFF" mask="url(#mask-4)" stroke-width="4.09556314" xlink:href="#path-3"></use>
                        </g>
                        <g id="Path-16" transform="translate(65.186698, 38.411220) scale(-1, 1) rotate(-30.000000) translate(-65.186698, -38.411220) ">
                            <use fill="#FFFFFF" fill-rule="evenodd" xlink:href="#path-5"></use>
                            <use stroke="#FFFFFF" mask="url(#mask-6)" stroke-width="4.09556314" xlink:href="#path-5"></use>
                        </g>
                        <g id="Path-16">
                            <use fill="#FFFFFF" fill-rule="evenodd" xlink:href="#path-7"></use>
                            <use stroke="#FFFFFF" mask="url(#mask-8)" stroke-width="4.09556314" xlink:href="#path-7"></use>
                        </g>
                        <path d="M37.8581173,80.8914926 L36.834925,44.0295466" id="Path-17" stroke="#FFFFFF" stroke-width="2.04778157" stroke-linecap="round"></path>
                        <ellipse id="Oval-5" stroke="#FFFFFF" stroke-width="1.02389078" cx="9.72032742" cy="9.72745797" rx="1.53478854" ry="1.53591442"></ellipse>
                        <use id="Combined-Shape" stroke="#FFFFFF" mask="url(#mask-10)" stroke-width="2.04778157" fill="#FFFFFF" xlink:href="#path-9"></use>
                        <ellipse id="Oval-5" fill="#FFFFFF" cx="45.53206" cy="1.53591442" rx="1.53478854" ry="1.53591442"></ellipse>
                        <ellipse id="Oval-5" fill="#FFFFFF" cx="54.7407913" cy="17.9190015" rx="1.53478854" ry="1.53591442"></ellipse>
                    </g>
                    <g id="Icon2" transform="translate(49.113233, 430.568008)">
                        <use id="Oval-3" stroke="#FFFFFF" mask="url(#mask-12)" stroke-width="6.9112628" xlink:href="#path-11"></use>
                        <text id="30" font-family="ADAM.CGPRO, ADAM.CG PRO" font-size="18.4300341" font-weight="normal" fill="#FFFFFF">
                            <tspan x="10.3598226" y="30.6712939">30</tspan>
                        </text>
                    </g>
                    <g id="4*4" transform="translate(616.102485, 94.855510) rotate(30.000000) translate(-616.102485, -94.855510) translate(596.150234, 74.888622)" fill="#FFFFFF">
                        <rect id="Rectangle-Copy-16" x="32.2305593" y="32.2542028" width="7.6739427" height="7.67957208" rx="1.53583618"></rect>
                        <rect id="Rectangle-Copy-17" x="21.4870396" y="32.2542028" width="7.6739427" height="7.67957208" rx="1.53583618"></rect>
                        <rect id="Rectangle-Copy-18" x="10.7435198" y="32.2542028" width="7.6739427" height="7.67957208" rx="1.53583618"></rect>
                        <rect id="Rectangle-Copy-19" x="0" y="32.2542028" width="7.6739427" height="7.67957208" rx="1.53583618"></rect>
                        <rect id="Rectangle-Copy-20" x="32.2305593" y="21.5028018" width="7.6739427" height="7.67957208" rx="1.53583618"></rect>
                        <rect id="Rectangle-Copy-21" x="21.4870396" y="21.5028018" width="7.6739427" height="7.67957208" rx="1.53583618"></rect>
                        <rect id="Rectangle-Copy-22" x="10.7435198" y="21.5028018" width="7.6739427" height="7.67957208" rx="1.53583618"></rect>
                        <rect id="Rectangle-Copy-23" x="0" y="21.5028018" width="7.6739427" height="7.67957208" rx="1.53583618"></rect>
                        <rect id="Rectangle-Copy-24" x="32.2305593" y="10.7514009" width="7.6739427" height="7.67957208" rx="1.53583618"></rect>
                        <rect id="Rectangle-Copy-25" x="21.4870396" y="10.7514009" width="7.6739427" height="7.67957208" rx="1.53583618"></rect>
                        <rect id="Rectangle-Copy-26" x="10.7435198" y="10.7514009" width="7.6739427" height="7.67957208" rx="1.53583618"></rect>
                        <rect id="Rectangle-Copy-27" x="0" y="10.7514009" width="7.6739427" height="7.67957208" rx="1.53583618"></rect>
                        <rect id="Rectangle-Copy-28" x="32.2305593" y="0" width="7.6739427" height="7.67957208" rx="1.53583618"></rect>
                        <rect id="Rectangle-Copy-29" x="21.4870396" y="0" width="7.6739427" height="7.67957208" rx="1.53583618"></rect>
                        <rect id="Rectangle-Copy-30" x="10.7435198" y="0" width="7.6739427" height="7.67957208" rx="1.53583618"></rect>
                        <rect id="Rectangle-Copy-31" x="0" y="0" width="7.6739427" height="7.67957208" rx="1.53583618"></rect>
                    </g>
                    <g id="Icon" transform="translate(350.954980, 35.326032)" stroke="#FFFFFF">
                        <g id="Brick" transform="translate(2.314364, 60.857618)" stroke-width="1.53583618">
                            <rect id="Rectangle-2" x="0" y="10.7848944" width="23.1436367" height="10.7848944"></rect>
                            <rect id="Rectangle-2" x="23.1436367" y="10.7848944" width="23.1436367" height="10.7848944"></rect>
                            <rect id="Rectangle-2" x="11.5718184" y="0" width="23.1436367" height="10.7848944"></rect>
                        </g>
                        <g id="Trophie" transform="translate(6.171636, 20.799439)">
                            <use id="Rectangle-21" mask="url(#mask-14)" stroke-width="3.07167235" fill="#FFFFFF" xlink:href="#path-13"></use>
                            <use id="Rectangle-21" mask="url(#mask-16)" stroke-width="3.07167235" fill="#FFFFFF" xlink:href="#path-15"></use>
                            <use id="Rectangle" mask="url(#mask-18)" stroke-width="3.07167235" fill="#FFFFFF" xlink:href="#path-17"></use>
                            <use id="Rectangle" mask="url(#mask-20)" stroke-width="3.07167235" fill="#FFFFFF" transform="translate(35.101182, 13.866293) scale(-1, 1) translate(-35.101182, -13.866293) " xlink:href="#path-19"></use>
                            <path d="M33.1514788,15.406992 L33.172546,15.406992 L34.3297278,0.385174799 L4.24300006,0.385174799 L5.4001819,15.406992 L5.42124908,15.406992 C5.82154273,22.7068163 11.8761044,28.5029351 19.2863639,28.5029351 C26.6966235,28.5029351 32.7511851,22.7068163 33.1514788,15.406992 Z" id="Combined-Shape" stroke-width="1.53583618"></path>
                            <ellipse id="Oval-4" stroke-width="1.53583618" cx="11.5718184" cy="13.0959432" rx="1.54290911" ry="1.5406992"></ellipse>
                            <ellipse id="Oval-4" stroke-width="1.53583618" cx="19.2863639" cy="13.0959432" rx="1.54290911" ry="1.5406992"></ellipse>
                            <ellipse id="Oval-4" stroke-width="1.53583618" cx="27.0009095" cy="13.0959432" rx="1.54290911" ry="1.5406992"></ellipse>
                        </g>
                        <g id="Decorations">
                            <ellipse id="Oval-2" stroke-width="0.767918089" cx="21.2150003" cy="8.08867078" rx="1.15718184" ry="1.1555244"></ellipse>
                            <ellipse id="Oval-2" stroke-width="0.767918089" cx="1.15718184" cy="13.481118" rx="1.15718184" ry="1.1555244"></ellipse>
                            <use id="Combined-Shape" mask="url(#mask-22)" stroke-width="1.53583618" fill="#FFFFFF" xlink:href="#path-21"></use>
                            <use id="Combined-Shape" mask="url(#mask-24)" stroke-width="1.53583618" fill="#FFFFFF" xlink:href="#path-23"></use>
                        </g>
                    </g>
                    <g id="Icon" transform="translate(281.377899, 290.287825)" stroke="#FFFFFF">
                        <g id="Brick" transform="translate(2.314364, 60.857618)" stroke-width="1.53583618">
                            <rect id="Rectangle-2" x="0" y="10.7848944" width="23.1436367" height="10.7848944"></rect>
                            <rect id="Rectangle-2" x="23.1436367" y="10.7848944" width="23.1436367" height="10.7848944"></rect>
                            <rect id="Rectangle-2" x="11.5718184" y="0" width="23.1436367" height="10.7848944"></rect>
                        </g>
                        <g id="Trophie" transform="translate(6.171636, 20.799439)">
                            <use id="Rectangle-21" mask="url(#mask-26)" stroke-width="3.07167235" fill="#FFFFFF" xlink:href="#path-25"></use>
                            <use id="Rectangle-21" mask="url(#mask-28)" stroke-width="3.07167235" fill="#FFFFFF" xlink:href="#path-27"></use>
                            <use id="Rectangle" mask="url(#mask-30)" stroke-width="3.07167235" fill="#FFFFFF" xlink:href="#path-29"></use>
                            <use id="Rectangle" mask="url(#mask-32)" stroke-width="3.07167235" fill="#FFFFFF" transform="translate(35.101182, 13.866293) scale(-1, 1) translate(-35.101182, -13.866293) " xlink:href="#path-31"></use>
                            <path d="M33.1514788,15.406992 L33.172546,15.406992 L34.3297278,0.385174799 L4.24300006,0.385174799 L5.4001819,15.406992 L5.42124908,15.406992 C5.82154273,22.7068163 11.8761044,28.5029351 19.2863639,28.5029351 C26.6966235,28.5029351 32.7511851,22.7068163 33.1514788,15.406992 Z" id="Combined-Shape" stroke-width="1.53583618"></path>
                            <ellipse id="Oval-4" stroke-width="1.53583618" cx="11.5718184" cy="13.0959432" rx="1.54290911" ry="1.5406992"></ellipse>
                            <ellipse id="Oval-4" stroke-width="1.53583618" cx="19.2863639" cy="13.0959432" rx="1.54290911" ry="1.5406992"></ellipse>
                            <ellipse id="Oval-4" stroke-width="1.53583618" cx="27.0009095" cy="13.0959432" rx="1.54290911" ry="1.5406992"></ellipse>
                        </g>
                        <g id="Decorations">
                            <ellipse id="Oval-2" stroke-width="0.767918089" cx="21.2150003" cy="8.08867078" rx="1.15718184" ry="1.1555244"></ellipse>
                            <ellipse id="Oval-2" stroke-width="0.767918089" cx="1.15718184" cy="13.481118" rx="1.15718184" ry="1.1555244"></ellipse>
                            <use id="Combined-Shape" mask="url(#mask-34)" stroke-width="1.53583618" fill="#FFFFFF" xlink:href="#path-33"></use>
                            <use id="Combined-Shape" mask="url(#mask-36)" stroke-width="1.53583618" fill="#FFFFFF" xlink:href="#path-35"></use>
                        </g>
                    </g>
                </g>
            </g>
        </g>
    </g>
</svg>