<?xml version="1.0" encoding="UTF-8" standalone="no"?>
<svg width="250px" height="250px" viewBox="0 0 250 250" version="1.1" xmlns="http://www.w3.org/2000/svg" xmlns:xlink="http://www.w3.org/1999/xlink">
    <!-- Generator: Sketch 41.1 (35376) - http://www.bohemiancoding.com/sketch -->
    <title>App icon-white</title>
    <desc>Created with Sketch.</desc>
    <defs>
        <ellipse id="path-1" cx="69.0314125" cy="67.106955" rx="69.0314125" ry="67.106955"></ellipse>
        <mask id="mask-2" maskContentUnits="userSpaceOnUse" maskUnits="objectBoundingBox" x="-7.5" y="-7.5" width="153.062825" height="149.21391">
            <rect x="-7.5" y="-7.5" width="153.062825" height="149.21391" fill="white"></rect>
            <use xlink:href="#path-1" fill="black"></use>
        </mask>
        <mask id="mask-4" maskContentUnits="userSpaceOnUse" maskUnits="objectBoundingBox" x="-7.5" y="-7.5" width="153.062825" height="149.21391">
            <rect x="-7.5" y="-7.5" width="153.062825" height="149.21391" fill="white"></rect>
            <use xlink:href="#path-1" fill="black"></use>
        </mask>
    </defs>
    <g id="Page-1" stroke="none" stroke-width="1" fill="none" fill-rule="evenodd">
        <g id="About" transform="translate(-161.000000, -57.000000)">
            <g id="App-icon-white" transform="translate(161.000000, 57.000000)">
                <rect id="Rectangle-8" fill="#FFFFFF" x="0" y="0" width="250" height="250"></rect>
                <g id="Logo-dark">
                    <rect id="Rectangle-8" x="0" y="0.954198473" width="250" height="248.091603"></rect>
                    <g id="Universe" transform="translate(19.230769, 60.309870)">
                        <g id="Rectangle-+-Rectangle-+-Rectangle-+-Rectangle-+-Rectangle-+-Rectangle-+-Rectangle-+-Rectangle-Mask" transform="translate(35.776280, 0.000000)">
                            <mask id="mask-3" fill="white">
                                <use xlink:href="#path-1"></use>
                            </mask>
                            <g id="Mask" stroke="#1F2E79" mask="url(#mask-2)" stroke-width="15">
                                <use mask="url(#mask-4)" xlink:href="#path-1"></use>
                            </g>
                        </g>
                        <path d="M183.180962,110.892768 C196.454867,106.631115 203.18704,101.623843 203.18704,95.6578356 C203.18704,89.0078305 193.274669,82.9734852 177.16469,78.5426498 C160.327492,73.9118028 136.720527,71.0325008 110.584669,71.0325008 C88.150765,71.0325008 67.5800908,73.1539051 51.5546538,76.6834997 C31.0466842,81.20037 17.9822988,88.0233867 17.9822988,95.6578356 C17.9822988,101.68533 26.1257251,107.207033 39.6464292,111.487358" id="Oval-3" stroke="#1F2E79" stroke-width="6.34615385" stroke-linecap="round" transform="translate(110.584669, 91.259929) scale(-1, 1) rotate(195.000000) translate(-110.584669, -91.259929) "></path>
                        <path d="M177.691028,97.4945203 C195.935352,93.0486292 207.194391,86.944637 207.194391,80.2090337 C207.194391,73.5590286 196.219701,67.5246833 178.3832,63.0938479 C159.741544,58.4630009 133.604598,55.5836989 104.667736,55.5836989 C79.829569,55.5836989 57.0543163,57.7051032 39.311418,61.2346978 C16.6055899,65.751568 2.14108199,72.5745848 2.14108199,80.2090337 C2.14108199,87.6314132 14.0709468,93.3957277 35.6962493,97.9105684" id="Oval-3" stroke="#1F2E79" stroke-width="6.34615385" stroke-linecap="round" transform="translate(104.667736, 76.747134) scale(-1, -1) rotate(15.000000) translate(-104.667736, -76.747134) "></path>
                    </g>
                    <ellipse id="Tiny-circle" stroke="#1F2E79" stroke-width="5.76923077" fill="#E76F83" cx="204.807692" cy="63.0504991" rx="9.61538462" ry="9.61538462"></ellipse>
                </g>
            </g>
        </g>
    </g>
</svg>